HIERARCHY
ROOT Hips
{
  OFFSET -331.093 83.8371 -317.828
  CHANNELS 6 Xposition Yposition Zposition Zrotation Xrotation Yrotation
  JOINT LeftUpLeg
  {
    OFFSET 8.64259 1.95398 -2.38835
    CHANNELS 3 Zrotation Xrotation Yrotation
    JOINT LeftLeg
    {
      OFFSET 43.7702 0 0
      CHANNELS 3 Zrotation Xrotation Yrotation
      JOINT LeftFoot
      {
        OFFSET 40.6238 0 0
        CHANNELS 3 Zrotation Xrotation Yrotation
        JOINT LeftToeBase
        {
          OFFSET 12.7242 0 0
          CHANNELS 3 Zrotation Xrotation Yrotation
          End Site
          {
            OFFSET 0 0 0
          }
        }
      }
    }
  }
  JOINT RightUpLeg
  {
    OFFSET -8.2249 1.95398 -2.59336
    CHANNELS 3 Zrotation Xrotation Yrotation
    JOINT RightLeg
    {
      OFFSET 43.5653 0 0
      CHANNELS 3 Zrotation Xrotation Yrotation
      JOINT RightFoot
      {
        OFFSET 40.6238 0 0
        CHANNELS 3 Zrotation Xrotation Yrotation
        JOINT RightToeBase
        {
          OFFSET 12.7242 0 0
          CHANNELS 3 Zrotation Xrotation Yrotation
          End Site
          {
            OFFSET 0 0 0
          }
        }
      }
    }
  }
  JOINT Spine
  {
    OFFSET 0.165834 0.87714 6.61349
    CHANNELS 3 Zrotation Xrotation Yrotation
    JOINT Spine1
    {
      OFFSET 7.38963 1.71661e-005 0
      CHANNELS 3 Zrotation Xrotation Yrotation
      JOINT Spine2
      {
        OFFSET 11.9445 1.14441e-005 0
        CHANNELS 3 Zrotation Xrotation Yrotation
        JOINT Spine3
        {
          OFFSET 14.7254 4.19617e-005 0
          CHANNELS 3 Zrotation Xrotation Yrotation
          JOINT Spine4
          {
            OFFSET 10.9679 0 0
            CHANNELS 3 Zrotation Xrotation Yrotation
            JOINT RightShoulder
            {
              OFFSET 2.46616 -1.6653 3.69651
              CHANNELS 3 Zrotation Xrotation Yrotation
              JOINT RightArm
              {
                OFFSET 13.0012 0 0
                CHANNELS 3 Zrotation Xrotation Yrotation
                JOINT RightForeArm
                {
                  OFFSET 28.7848 1.62311e-005 0
                  CHANNELS 3 Zrotation Xrotation Yrotation
                  JOINT RightHand
                  {
                    OFFSET 26.5688 1.62095e-005 0
                    CHANNELS 3 Zrotation Xrotation Yrotation
                    End Site
                    {
                      OFFSET 0 0 0
                    }
                  }
                }
              }
            }
            JOINT LeftShoulder
            {
              OFFSET 2.38034 -1.29275 -3.7523
              CHANNELS 3 Zrotation Xrotation Yrotation
              JOINT LeftArm
              {
                OFFSET 16.3182 6.07031e-005 0
                CHANNELS 3 Zrotation Xrotation Yrotation
                JOINT LeftForeArm
                {
                  OFFSET 27.0901 0 0
                  CHANNELS 3 Zrotation Xrotation Yrotation
                  JOINT LeftHand
                  {
                    OFFSET 24.5451 1.51738e-005 0
                    CHANNELS 3 Zrotation Xrotation Yrotation
                    End Site
                    {
                      OFFSET 0 0 0
                    }
                  }
                }
              }
            }
            JOINT Neck
            {
              OFFSET 5.0226 -0.0266342 0
              CHANNELS 3 Zrotation Xrotation Yrotation
              JOINT Head
              {
                OFFSET 6.69364 2.86102e-005 0
                CHANNELS 3 Zrotation Xrotation Yrotation
                End Site
                {
                  OFFSET 0 0 0
                }
              }
            }
          }
        }
      }
    }
  }
}
MOTION
Frames:	15
Frame Time:	0.0416667
42.6725 99.204 -274.839 -10.019 -87.1849 -10.5286 -177.047 9.30706 86.1325 -17.5638 8.47592 -0.857135 66.7877 6.35911 5.50245 29.0856 0.918014 3.06892 173.389 4.40785 91.9091 -11.9567 -9.24801 -1.98507 68.7202 -4.27822 -2.24675 28.7243 0.280094 2.37469 -0.0689931 6.86623 -89.9084 13.1415 -0.0928101 0.194735 1.47053 -0.0841385 0.198624 -21.0646 -0.147042 0.157842 -1.05193 -0.147047 0.157827 89.7034 -42.2697 -102.871 30.3444 -21.7039 -1.17746 -4.52586 -12.9816 -40.3316 -7.01607 -0.486846 2.21334 -98.3202 -50.4393 67.1219 -22.8404 14.0066 2.81719 5.35146 14.6512 -35.4407 8.55643 0.55136 2.33236 6.50718 0.524484 1.38874 -6.5921 0.208969 0.854782 
43.176 98.9043 -274.492 -6.76066 -87.1263 -7.10271 -177.46 10.1762 85.6863 -19.6769 8.01137 -0.455684 67.6883 7.20782 5.43704 29.7406 1.45405 3.15611 173.567 5.56801 91.8959 -14.7065 -8.86377 -2.15217 70.2274 -4.9358 -2.55037 29.2108 0.261754 2.23567 0.0464529 6.84 -89.961 13.1939 0.11101 0.0640887 1.52294 0.113726 0.0591381 -21.0122 0.0866089 0.0944805 -0.999588 0.0866207 0.0944952 89.6279 -41.8218 -103.126 31.898 -19.5859 0.521202 -10.4099 -15.9369 -42.6376 -5.32631 -0.410729 2.19335 -99.5842 -50.7359 65.4093 -23.1872 12.9835 3.07372 5.87126 14.9732 -35.4744 9.25362 0.600874 2.41277 4.61529 0.0324469 1.90185 -4.75508 -0.297633 -0.412764 
43.6258 98.578 -273.737 5.57131 -87.4038 5.90688 -177.437 10.3761 85.9166 -21.7261 8.62077 -0.210649 68.9443 8.36188 6.14641 29.5889 0.652456 0.247089 174.971 5.87364 92.815 -16.9431 -6.67389 -3.0284 70.8898 -5.41886 -2.75287 31.3109 0.0348893 0.481782 0.0201462 6.90574 -90.0312 13.0625 0.0250478 -0.0656257 1.39152 0.0221358 -0.0666678 -21.1436 0.043611 -0.0550684 -1.13098 0.0436141 -0.055059 89.7392 -41.9661 -102.898 31.4307 -19.2642 0.508531 -9.96845 -15.3408 -42.6499 -5.32854 -0.406953 2.19833 -99.4628 -50.6637 65.5581 -23.4911 13.1142 2.99176 5.6313 14.3803 -35.5815 9.55393 0.620382 2.43158 4.2789 -0.095547 1.15909 -3.81855 -0.30714 0.520295 
44.0679 98.2071 -273.073 10.5761 -87.6588 10.7884 -177.307 10.1504 85.6304 -22.925 9.82651 -0.434206 69.7159 9.11902 6.64618 30.8526 1.79825 1.05382 176.785 9.47383 93.3081 -25.0104 -4.23742 -4.08964 71.1119 -5.49354 -2.82208 34.8973 -0.626481 -2.99121 0.000952917 6.99269 -90.0046 12.8885 -0.000271324 -0.00910058 1.21752 -0.000670263 -0.0090801 -21.3176 0.00247101 -0.00876588 -1.30499 0.00247846 -0.00875853 89.8787 -41.9368 -102.672 31.527 -18.7558 0.844809 -9.97235 -15.5587 -42.9918 -6.59354 -0.486865 2.30981 -99.2312 -50.3425 65.7763 -23.8117 13.2651 2.75666 5.6659 14.1971 -35.7832 8.91004 0.52601 1.86251 4.48026 0.0208813 1.19994 -3.26321 -0.197782 0.378474 
44.6029 97.7515 -272.374 4.78686 -87.9824 4.46095 -177.503 10.1144 84.7597 -24.645 11.0295 -0.516978 69.89 9.65466 7.68738 32.6023 3.15874 1.14867 177.687 15.693 92.9391 -36.3022 -1.85962 -4.17229 69.7328 -4.6871 -2.54639 39.8547 -2.00616 -8.30004 -0.0496563 7.10697 -89.8745 12.6599 -0.0386552 0.255349 0.98895 -0.027385 0.256793 -21.546 -0.113619 0.231929 -1.53339 -0.113619 0.231913 89.6758 -42.3871 -102.884 32.2365 -16.9994 1.26839 -10.1974 -13.3862 -43.7808 -6.91157 -0.494586 2.24598 -98.9771 -50.0167 66.0275 -22.8608 13.9659 2.29154 5.62409 13.5389 -36.6535 9.07154 0.614536 2.65781 4.36087 0.179866 0.619475 -2.44208 0.0631817 0.97846 
45.0628 97.6654 -271.15 21.4559 -87.4837 21.7557 -177.46 10.0139 85.0593 -25.4007 10.1801 -0.258058 71.012 9.74317 6.84055 32.8096 2.84565 -0.572468 177.917 20.6937 93.5595 -41.3692 -1.09017 -3.43544 69.8207 -4.74194 -2.60821 41.5809 -2.27558 -8.76194 -0.157487 7.14725 -89.9867 12.5794 -0.306441 0.062338 0.908537 -0.303405 0.0757534 -21.6269 -0.311016 -0.0326469 -1.61423 -0.31102 -0.0326593 89.9656 -42.3297 -102.416 32.6356 -15.7302 2.31591 -10.1041 -11.9426 -44.7933 -8.35476 -0.611417 2.89142 -100.103 -50.8033 64.6924 -20.6461 14.8449 1.10437 5.23135 12.7709 -37.063 8.74177 0.592148 2.63631 3.52685 0.56243 1.10033 -1.62624 0.370032 1.4999 
45.4062 97.7631 -269.18 41.6794 -87.0668 42.4834 -177.433 7.66436 85.4231 -23.6744 11.9799 -0.073302 71.1257 10.6502 7.78619 32.6759 2.48643 -1.54254 177.841 23.4859 94.0367 -38.4104 -0.668131 -2.84778 67.8414 -3.6473 -2.08909 41.509 -2.07924 -7.95347 -0.324368 7.2063 -90.0648 12.4613 -0.675234 -0.0517916 0.790542 -0.676858 -0.0220263 -21.7459 -0.628449 -0.252337 -1.73325 -0.628446 -0.252336 89.892 -42.2496 -102.562 32.9302 -14.8602 3.81657 -11.2707 -11.9435 -45.8323 -8.10221 -0.64561 3.73257 -99.8001 -50.5161 65.0217 -19.9536 14.8226 -0.263114 5.50675 12.0746 -38.0904 8.73105 0.560042 2.31454 3.52368 0.666686 1.076 -2.97063 0.458269 1.79299 
45.7789 97.5831 -267.092 49.4328 -86.1005 50.7043 -176.906 6.32579 86.1243 -23.1768 13.6518 -0.30082 72.4061 11.3967 7.46797 32.1951 2.06336 -1.82044 177.787 26.0123 94.0695 -32.0819 -1.62915 -2.18252 65.6573 -2.76334 -1.60157 40.1811 -2.20934 -9.08576 -0.472971 7.24749 -90.1359 12.3786 -1.00432 -0.157059 0.70806 -1.01026 -0.112706 -21.8297 -0.910681 -0.451661 -1.81703 -0.910686 -0.45167 90.3397 -42.2481 -101.813 32.9877 -14.9977 4.06135 -12.1676 -13.3531 -45.0409 -10.0731 -0.6707 2.06413 -99.7498 -50.2964 65.0145 -18.4056 15.1574 -1.63268 5.97629 10.8085 -40.5373 8.36077 0.542045 2.35225 3.53576 0.829036 0.927515 -3.5694 0.633473 1.80808 
46.1279 97.0886 -264.467 28.2777 -86.7919 29.4733 -176.246 4.83905 86.0446 -23.3586 12.2233 -0.759926 74.2704 11.6802 6.55073 33.8712 3.63416 -0.578352 178.915 28.4178 93.9988 -25.6733 -3.22102 -2.12499 63.0753 -1.97028 -1.09318 37.7887 -1.72016 -7.83836 -0.362408 7.30332 -90.1074 12.267 -0.771113 -0.127764 0.596283 -0.776002 -0.0937045 -21.9404 -0.697072 -0.353625 -1.92774 -0.697071 -0.353627 90.0888 -42.7812 -102.087 32.2872 -15.36 4.03058 -11.5739 -14.3914 -43.5594 -7.06561 -0.581371 3.85507 -99.715 -50.1525 65.0121 -16.2846 15.3742 -3.58023 5.78972 9.56197 -41.6227 8.57456 0.51171 1.90885 3.81305 0.706774 0.823923 -4.26905 0.518314 1.77702 
46.4013 96.421 -260.854 31.0406 -86.5809 31.4411 -175.919 2.02334 85.4764 -22.3907 12.3582 -1.1348 75.0395 12.7148 6.97168 35.9528 5.06895 -0.973177 178.926 29.8 93.2675 -20.8014 -3.46521 -2.04514 62.0793 -1.516 -0.800872 38.0519 -1.55089 -6.88794 -0.440598 7.37798 -90.0599 12.1182 -0.904127 -0.0198088 0.447596 -0.90411 0.0199957 -22.0899 -0.856377 -0.290645 -2.07724 -0.856371 -0.290645 89.4727 -43.4706 -102.913 30.9923 -15.3477 4.50361 -11.1741 -15.2698 -41.536 -5.96839 -0.486043 3.39047 -100.009 -50.179 64.5994 -14.8168 14.7063 -5.39264 5.82824 9.46906 -41.5717 8.31561 0.520996 2.15915 2.87665 0.982514 1.02311 -3.21601 0.779263 1.94284 
46.7142 95.4938 -256.839 38.3905 -86.5334 38.5576 -176.042 -0.254727 85.0335 -23.3419 13.4928 -0.807463 74.368 13.869 9.47145 40.0973 8.38213 -0.477788 178.613 30.9134 93.2039 -19.9668 -2.29716 -1.65133 62.2934 -1.65455 -0.885763 38.6463 -1.57022 -6.74603 -0.529118 7.45952 -90.0946 11.9546 -1.09662 -0.0702391 0.284151 -1.09865 -0.0219066 -22.2543 -1.02481 -0.396607 -2.2417 -1.02481 -0.396612 89.5617 -43.8566 -102.661 30.2709 -15.9919 4.77006 -10.0196 -14.9801 -39.8707 -5.66474 -0.475599 3.81449 -100.18 -50.2437 64.3779 -13.8527 14.5526 -6.80803 5.09461 9.54049 -39.9173 8.91216 0.542839 2.04277 2.54369 1.18196 1.30823 -3.39686 0.927375 2.10547 
46.6682 94.8048 -251.609 47.8065 -85.5669 48.2992 -175.994 -1.91931 86.1089 -25.9722 16.6279 -0.0390181 71.9977 11.8522 9.43287 47.6754 14.6426 0.192769 178.813 32.0914 93.6345 -25.1787 -2.05056 -1.63851 62.3944 -1.58025 -0.87607 37.3919 -1.62971 -7.56825 -0.696946 7.44094 -90.22 11.9912 -1.48935 -0.276474 0.321069 -1.50008 -0.210655 -22.2196 -1.3374 -0.711377 -2.20695 -1.33741 -0.711393 89.3443 -44.6135 -102.804 29.2139 -15.9241 5.55862 -11.8591 -16.7994 -40.1106 -5.21275 -0.415094 2.14808 -100.424 -50.3123 64.0536 -14.1294 14.6569 -6.88485 4.41727 10.5425 -37.4425 9.10538 0.531264 1.80573 2.25123 1.37056 1.31394 -3.68893 1.10293 2.68749 
46.419 94.1514 -245.515 52.9596 -85.1002 54.342 -175.362 -4.7197 88.0761 -27.2179 21.064 0.48852 68.6566 11.0833 11.0983 52.7749 19.2343 0.942399 178.885 33.2953 95.1297 -34.2449 0.611971 -1.80956 64.7153 -2.12829 -1.27339 35.388 -1.30664 -6.71319 -0.806914 7.43156 -90.4094 12.0066 -1.79741 -0.621067 0.336768 -1.82299 -0.541337 -22.2049 -1.52765 -1.13264 -2.19223 -1.52765 -1.13263 89.4062 -44.5852 -102.712 29.7405 -14.3687 6.88722 -11.5718 -16.8868 -40.1074 -4.76121 -0.419662 3.79721 -100.447 -50.4086 64.0571 -16.033 14.0638 -5.04637 4.79197 12.6174 -35.7352 8.41196 0.628741 3.23909 3.22181 1.62036 2.2507 -5.27475 1.16485 1.95696 
45.846 93.8717 -238.959 61.9841 -85.2078 64.1325 -173.597 -4.02671 91.5705 -34.1856 23.2327 0.48657 63.7197 4.71408 5.85496 56.9557 25.3698 4.91053 179.254 31.264 97.2031 -39.7279 2.06885 -2.25317 68.7047 -3.64657 -2.11495 29.8038 -0.433021 -3.33215 -0.890205 7.43827 -90.5128 11.9909 -2.01174 -0.804495 0.321337 -2.04519 -0.71515 -22.2211 -1.67695 -1.37201 -2.20845 -1.67696 -1.37202 89.2102 -44.4357 -103.071 30.3209 -13.9341 6.79309 -10.5785 -17.0679 -38.2781 -3.6332 -0.347067 4.57438 -100.424 -50.2476 64.0298 -18.6311 13.1904 -1.82633 4.19855 13.5977 -33.2587 10.2161 0.630571 2.12248 2.59064 1.93376 2.05003 -5.29471 1.50683 2.40105 
45.2469 93.5955 -232.691 62.6298 -85.931 64.7883 -172.453 1.41948 94.6693 -46.5715 25.4669 0.39294 52.7938 -5.55215 -1.37058 49.491 23.52 13.5703 -179.993 28.3307 98.9897 -43.1031 2.89825 -3.33606 73.5664 -5.26094 -2.89462 28.7009 -0.250969 -2.16775 -0.751031 7.39279 -90.4667 12.0828 -1.71344 -0.743104 0.412848 -1.74449 -0.666958 -22.1273 -1.4109 -1.22376 -2.11463 -1.41091 -1.22377 89.4621 -44.3418 -102.688 31.2677 -14.0598 6.62898 -11.0128 -17.249 -38.0511 -4.51784 -0.413811 4.56286 -99.4881 -49.8559 65.232 -20.7424 13.3536 0.618748 3.80342 14.9354 -31.4398 10.7733 0.839631 3.72342 2.37967 1.70829 1.37052 -5.76791 1.38634 2.45822 
